<svg width="168" height="168" viewBox="0 0 168 168" fill="none" xmlns="http://www.w3.org/2000/svg">
<path d="M59.0105 26.3956L99.148 8.35066C104.882 5.82099 111.628 8.35066 114.157 14.0846L154.801 104.141C157.33 109.875 154.801 116.62 149.067 119.15L59.0105 159.793C53.2766 162.323 46.5308 159.793 44.0011 154.06L3.35774 64.0033C0.828069 58.2694 3.35774 51.5237 9.09166 48.994L17.5239 45.2838L18.1985 44.9465L18.3671 45.0027L18.5358 44.7779" stroke="white" stroke-width="4.42692"/>
<path fill-rule="evenodd" clip-rule="evenodd" d="M0.322661 57.9316C0.154017 60.2926 0.491306 62.6536 1.50317 64.846L41.9779 154.902C43.1584 157.6 45.1822 159.793 47.7118 161.142C49.9042 124.209 78.5738 102.454 117.868 102.454C122.421 102.454 129.336 102.791 138.274 104.14C140.635 104.477 143.165 104.14 145.188 102.791C148.393 100.43 151.26 98.069 153.621 95.5393C158.343 90.48 162.222 84.5774 164.245 75.1333C164.245 75.1333 168.63 74.2901 167.112 61.3045C166.944 59.4494 165.763 57.7629 164.245 57.5943C163.571 57.4257 162.896 57.4257 162.39 57.4257C161.547 57.4257 160.704 57.4257 160.029 57.5943C147.887 55.5706 136.588 50.3426 131.697 44.7773C131.528 44.6087 131.36 44.2714 131.022 44.1027C130.516 43.4282 130.01 42.9222 129.336 42.2477C128.999 41.9104 128.661 41.5731 128.155 41.2358C118.205 33.6468 106.063 29.0934 92.9086 29.0934C74.0204 29.0934 67.4433 29.0934 63.9017 25.5519C63.0585 24.54 62.0466 23.6968 61.0348 22.8535C56.4813 19.312 50.7474 17.1196 44.6762 17.1196C30.6787 17.1196 19.0422 28.0815 17.5244 42.4163C17.3558 43.5968 17.3558 44.6087 17.3558 45.7892C17.3558 48.3189 17.8617 51.0172 18.7049 53.8841L0.322661 57.9316ZM21.7968 53.4344C33.9392 51.5793 48.0491 50.6799 66.2627 50.3426C60.6975 46.8011 58.8424 40.5612 57.1559 34.49C55.3191 28.061 53.4822 23.2067 47.3578 20.8517C46.0511 20.3492 44.6379 20.1706 43.2395 20.2375C29.2075 20.9089 21.2908 31.585 21.2908 47.9816C21.2908 49.8367 21.4595 51.4107 21.7968 53.4344ZM164.639 62.5412C165.651 72.1539 162.446 73.0534 162.446 73.0534C161.266 73.0534 157.612 68.6686 153.396 64.7898C152.89 64.4525 153.115 63.6093 153.621 63.272L156.544 61.192C158.133 60.2122 158.905 59.6743 161.097 59.6743C161.435 59.6743 161.94 59.6742 162.446 59.8429C163.458 60.0115 164.47 61.0234 164.639 62.5412ZM119.723 58.4375C122.421 58.2689 124.445 56.4138 124.445 54.0528C124.614 51.3545 122.084 49.3307 119.049 49.4994C116.519 49.668 116.35 49.668 108.424 51.5231C107.918 51.6917 107.749 52.1977 108.255 52.535C116.856 58.6062 117.025 58.6062 119.723 58.4375Z" fill="white"/>
</svg>
